<?xml version="1.0" encoding="utf-8"?>
<!-- Generator: Adobe Illustrator 15.0.2, SVG Export Plug-In . SVG Version: 6.00 Build 0)  -->
<!DOCTYPE svg PUBLIC "-//W3C//DTD SVG 1.1//EN" "http://www.w3.org/Graphics/SVG/1.1/DTD/svg11.dtd">
<svg version="1.1" id="Layer_1" xmlns="http://www.w3.org/2000/svg" xmlns:xlink="http://www.w3.org/1999/xlink" x="0px" y="0px"
	 width="27px" height="23px" viewBox="0 0 27 23" enable-background="new 0 0 27 23" xml:space="preserve">
<g id="Layer_1_1_">
</g>
<g id="Layer_2">
	<g>
		<polygon fill="#4D4D4D" points="7.293,7.486 4.461,10.315 12.252,18.098 26.2,4.166 23.369,1.337 12.252,12.439 		"/>
		<path fill="#4D4D4D" d="M21.023,20c0,0.542-0.459,1-1.001,1H3.003c-0.542,0-1.001-0.458-1.001-1V3c0-0.542,0.458-1,1.001-1h16.927
			l1.586-1.585C21.074,0.158,20.567,0,20.022,0H3.003C1.352,0,0,1.35,0,3v17c0,1.65,1.352,3,3.003,3h17.019
			c1.652,0,3.003-1.35,3.003-3v-9.829l-2.002,2V20z"/>
	</g>
</g>
</svg>
